<svg width="48" height="49" viewBox="0 0 48 49" fill="none" xmlns="http://www.w3.org/2000/svg">
<path d="M0 24.5312C0 11.2764 10.7452 0.53125 24 0.53125V0.53125C37.2548 0.53125 48 11.2764 48 24.5312V24.5312C48 37.7861 37.2548 48.5312 24 48.5312V48.5312C10.7452 48.5312 0 37.7861 0 24.5312V24.5312Z" fill="#3A5F56" fill-opacity="0.1"/>
<g clip-path="url(#clip0_2_130)">
<path d="M34.5933 22.5098C34.9931 22.5098 35.3529 22.6668 35.6327 22.9415C35.9125 23.2163 36.0325 23.5696 35.9925 23.9621C35.7526 26.592 34.5533 29.0649 32.6344 30.949C31.9148 31.6948 31.0753 32.2836 30.1958 32.7939V33.1864C30.1958 34.207 29.3563 35.0312 28.3169 35.0312H19.6818C18.6424 35.0312 17.8028 34.207 17.8028 33.1864V32.7939C14.5247 30.949 12.3659 27.6518 12.0061 23.9621C11.9661 23.6088 12.1261 23.2163 12.3659 22.9415C12.6458 22.6668 13.0056 22.5098 13.4053 22.5098H34.5933ZM34.2335 27.2985H13.7251C14.6846 29.3397 16.3237 31.0668 18.4025 32.2051C18.5224 32.2836 18.6024 32.4013 18.6024 32.5584V33.1471C18.6024 33.7359 19.0821 34.207 19.6818 34.207H28.3169C28.9165 34.207 29.3962 33.7359 29.3962 33.1471V32.5584C29.3962 32.4013 29.4762 32.2836 29.5961 32.2051C30.5156 31.7341 31.3551 31.106 32.0747 30.3995C32.9942 29.4967 33.7138 28.4369 34.2335 27.2985ZM34.6333 23.2555H13.4053C13.2454 23.2555 13.0855 23.3341 12.9656 23.4518C12.8456 23.5696 12.8057 23.7266 12.8057 23.8836C12.8856 24.7864 13.0855 25.6892 13.4053 26.5135H34.5933C34.9131 25.6499 35.113 24.7864 35.2329 23.8836C35.2329 23.7266 35.193 23.5696 35.073 23.4518C34.9531 23.3341 34.7932 23.2555 34.6333 23.2555ZM18.0827 14.0312C18.3225 14.0312 18.4824 14.1883 18.4824 14.4238V19.0948C18.4824 19.3303 18.3225 19.4873 18.0827 19.4873C17.8428 19.4873 17.6829 19.2911 17.6829 19.0948V14.4238C17.6829 14.1883 17.8428 14.0312 18.0827 14.0312ZM29.916 14.0312C30.1558 14.0312 30.3157 14.1883 30.3157 14.4238V19.0948C30.3157 19.3303 30.1558 19.4873 29.916 19.4873C29.7161 19.4873 29.5162 19.2911 29.5162 19.0948V14.4238C29.5162 14.1883 29.6761 14.0312 29.916 14.0312ZM23.9993 14.0312C24.2392 14.0312 24.3991 14.1883 24.3991 14.4238V19.0948C24.3991 19.3303 24.2392 19.4873 23.9993 19.4873C23.7594 19.4873 23.5995 19.2911 23.5995 19.0948V14.4238C23.5995 14.1883 23.7594 14.0312 23.9993 14.0312Z" fill="#3A5F56"/>
</g>
<defs>
<clipPath id="clip0_2_130">
<rect width="24" height="24" fill="white" transform="translate(12 12.5312)"/>
</clipPath>
</defs>
</svg>
