<svg width="48" height="49" viewBox="0 0 48 49" fill="none" xmlns="http://www.w3.org/2000/svg">
<path d="M0 24.5312C0 11.2764 10.7452 0.53125 24 0.53125V0.53125C37.2548 0.53125 48 11.2764 48 24.5312V24.5312C48 37.7861 37.2548 48.5312 24 48.5312V48.5312C10.7452 48.5312 0 37.7861 0 24.5312V24.5312Z" fill="#3A5F56" fill-opacity="0.1"/>
<g clip-path="url(#clip0_2_74)">
<path d="M35.7598 13.5128L35.6399 13.1532C35.5999 13.0333 35.48 12.9134 35.36 12.8734L35.0002 12.7535C34.9202 12.7136 33.2809 12.274 30.682 12.7535C29.2026 13.0333 27.7232 13.5928 26.2838 14.392C25.4842 14.8316 24.7245 15.3111 23.9248 15.9106C23.9248 15.9106 23.9248 15.9106 23.8848 15.9106C22.9252 16.6299 21.9257 17.4691 21.006 18.3883C17.3676 22.0249 15.1685 25.6215 13.929 27.9793C12.5696 30.5768 12.1298 32.3352 12.0898 32.4151L12.0098 33.0945C11.9698 33.2943 12.0498 33.4941 12.2897 33.574L14.3288 34.2534L15.0086 36.2915C15.0485 36.4114 15.2085 36.5312 15.3684 36.5312C15.4084 36.5312 15.4484 36.5312 15.4884 36.5312L16.0881 36.3714C16.1681 36.3714 17.9273 35.8918 20.5262 34.5331C22.4055 33.574 25.0044 32.0155 27.8032 29.6177C28.5629 28.9783 29.3225 28.259 30.1222 27.4997C31.8015 25.8213 33.1609 24.0629 34.1205 22.2646C34.9202 20.826 35.44 19.3074 35.7598 17.8687C36.2796 15.2312 35.7998 13.5928 35.7598 13.5128ZM21.6458 18.9877C22.4055 18.2284 23.2051 17.549 23.9648 16.9096L27.0835 29.1382C25.0843 30.8566 23.1651 32.0954 21.5658 33.0145L18.807 22.1447C19.6466 21.1057 20.5662 20.0667 21.6458 18.9877ZM20.1664 33.8138C17.6474 35.1326 15.9682 35.5721 15.8882 35.5721L15.6083 35.6521L15.0086 33.8138C14.9686 33.6939 14.8886 33.614 14.7687 33.574L12.8894 32.9346L12.9694 32.6948C12.9694 32.6149 13.4492 30.9365 14.7287 28.4189C15.4884 26.9802 16.6079 25.062 18.1672 22.984L20.8461 33.4541C20.6062 33.574 20.3663 33.6939 20.1664 33.8138ZM35.0002 17.6689C34.7203 19.0676 34.2005 20.4663 33.4408 21.825C32.5212 23.5434 31.2018 25.2618 29.5624 26.9003C28.9627 27.4997 28.3629 28.0592 27.8032 28.5787L24.6845 16.4301C25.3642 15.9505 26.0439 15.511 26.7236 15.1513C28.1231 14.392 29.5225 13.8725 30.8819 13.5928C32.6811 13.2331 33.9206 13.3929 34.4804 13.5128L32.7211 15.2712C32.5612 15.431 32.5612 15.6708 32.7211 15.8307C32.8011 15.9106 32.921 15.9505 33.001 15.9505C33.081 15.9505 33.2009 15.9106 33.2809 15.8307L35.0401 14.0723C35.2001 14.5918 35.32 15.8706 35.0002 17.6689Z" fill="#3A5F56"/>
</g>
<defs>
<clipPath id="clip0_2_74">
<rect width="24" height="24" fill="white" transform="translate(12 12.5312)"/>
</clipPath>
</defs>
</svg>
