<svg width="48" height="49" viewBox="0 0 48 49" fill="none" xmlns="http://www.w3.org/2000/svg">
<path d="M0 24.5312C0 11.2764 10.7452 0.53125 24 0.53125V0.53125C37.2548 0.53125 48 11.2764 48 24.5312V24.5312C48 37.7861 37.2548 48.5312 24 48.5312V48.5312C10.7452 48.5312 0 37.7861 0 24.5312V24.5312Z" fill="#3A5F56" fill-opacity="0.1"/>
<g clip-path="url(#clip0_2_60)">
<path d="M26.0299 18.0113L27.3697 15.7313C27.4509 15.6113 27.4509 15.4512 27.3697 15.3312L25.8675 12.7313C25.7863 12.6113 25.6645 12.5312 25.5021 12.5312H22.4573C22.2949 12.5312 22.1731 12.6113 22.0919 12.7313L20.6303 15.3312C20.5491 15.4512 20.5491 15.6113 20.6303 15.7313L21.9701 18.0113C17.7073 18.9313 14.5 22.6912 14.5 27.1713C14.5 32.3312 18.7628 36.5312 24 36.5312C29.2372 36.5312 33.5 32.3312 33.5 27.1713C33.5 22.6912 30.2927 18.9313 26.0299 18.0113ZM22.7415 13.3313H25.2991L26.5577 15.5312L25.2991 17.7312H22.7415L21.4829 15.5312L22.7415 13.3313ZM24 35.7313C19.2094 35.7313 15.312 31.8913 15.312 27.1713C15.312 22.4513 19.2094 18.6112 24 18.6112C28.7906 18.6112 32.688 22.4513 32.688 27.1713C32.688 31.8913 28.7906 35.7313 24 35.7313Z" fill="#3A5F56"/>
</g>
<defs>
<clipPath id="clip0_2_60">
<rect width="24" height="24" fill="white" transform="translate(12 12.5312)"/>
</clipPath>
</defs>
</svg>
